<svg width="115" height="52" viewBox="0 0 115 52" fill="none" xmlns="http://www.w3.org/2000/svg">
<path d="M114.344 8.61048C114.344 4.55146 114.344 2.52195 113.083 1.26098C111.822 0 109.793 0 105.734 0H25.6952C17.799 0 13.8509 0 10.7295 1.27027C6.43049 3.01981 3.01969 6.43062 1.27015 10.7297C-0.000127316 13.851 -0.000127316 17.7991 -0.000127316 25.6954V25.6954C-0.000127316 33.5916 -0.000127316 37.5397 1.27015 40.6611C3.01969 44.9601 6.43049 48.3709 10.7295 50.1205C13.8509 51.3907 17.799 51.3907 25.6952 51.3907H79.9023C96.1384 51.3907 104.256 51.3907 109.3 46.3468C114.344 41.3029 114.344 33.1849 114.344 16.9488V8.61048Z" fill="#23262F"/>
<circle cx="87.3643" cy="25.6954" r="19.2715" fill="#3D414D"/>
<path d="M17.7477 28.8419C16.9357 28.8419 16.2263 28.6972 15.6197 28.4079C15.0223 28.1186 14.5557 27.6939 14.2197 27.1339C13.893 26.5646 13.7297 25.8739 13.7297 25.0619V22.5559C13.7297 21.7439 13.893 21.0579 14.2197 20.4979C14.5463 19.9286 14.9943 19.4992 15.5637 19.2099C16.1423 18.9112 16.805 18.7619 17.5517 18.7619C18.3357 18.7619 18.9937 18.9019 19.5257 19.1819C20.067 19.4619 20.4823 19.8539 20.7717 20.3579C21.0703 20.8526 21.2383 21.4359 21.2757 22.1079H19.1197C19.073 21.6132 18.9283 21.2492 18.6857 21.0159C18.443 20.7826 18.079 20.6659 17.5937 20.6659C17.071 20.6659 16.6697 20.8479 16.3897 21.2119C16.1097 21.5666 15.9697 22.0472 15.9697 22.6539V24.9639C15.9697 25.5612 16.1097 26.0419 16.3897 26.4059C16.6697 26.7606 17.071 26.9379 17.5937 26.9379C18.079 26.9379 18.443 26.8259 18.6857 26.6019C18.9377 26.3686 19.0823 25.9999 19.1197 25.4959H21.2757C21.2383 26.5599 20.8977 27.3859 20.2537 27.9739C19.6097 28.5526 18.7743 28.8419 17.7477 28.8419ZM27.4844 25.0759L26.3924 21.5619L25.3004 25.0759H27.4844ZM28.6184 28.7019L28.0864 26.9799H24.7264L24.1944 28.7019H21.8844L25.2724 18.9019H27.6104L30.9984 28.7019H28.6184ZM35.5268 20.8059H34.4348V23.3819H35.5268C36.0401 23.3819 36.4181 23.2792 36.6608 23.0739C36.9128 22.8686 37.0388 22.5932 37.0388 22.2479V21.9539C37.0388 21.7206 36.9828 21.5199 36.8708 21.3519C36.7588 21.1746 36.5908 21.0392 36.3668 20.9459C36.1521 20.8526 35.8721 20.8059 35.5268 20.8059ZM34.4348 25.2859V28.7019H32.2508V18.9019H35.6948C36.4414 18.9019 37.0808 19.0186 37.6128 19.2519C38.1448 19.4759 38.5554 19.8072 38.8448 20.2459C39.1341 20.6846 39.2788 21.2212 39.2788 21.8559V22.3459C39.2788 22.9619 39.1294 23.4846 38.8308 23.9139C38.5414 24.3432 38.1448 24.6746 37.6408 24.9079L39.7128 28.7019H37.2348L35.5408 25.2859H34.4348ZM47.6169 20.8059H44.9149V28.7019H42.7309V20.8059H40.0149V18.9019H47.6169V20.8059Z" fill="white"/>
<path d="M83.2428 28.7019V26.9379L86.3788 23.8719C86.7895 23.4706 87.0882 23.1486 87.2748 22.9059C87.4615 22.6632 87.5782 22.4532 87.6248 22.2759C87.6715 22.0986 87.6948 21.9072 87.6948 21.7019C87.6948 21.3472 87.6108 21.0859 87.4428 20.9179C87.2748 20.7499 87.0088 20.6659 86.6448 20.6659C86.2715 20.6659 85.9962 20.7686 85.8188 20.9739C85.6508 21.1792 85.5342 21.5106 85.4688 21.9679H83.3128C83.3595 20.9879 83.6722 20.2086 84.2508 19.6299C84.8388 19.0512 85.6508 18.7619 86.6868 18.7619C87.7882 18.7619 88.6048 19.0326 89.1368 19.5739C89.6688 20.1059 89.9348 20.8152 89.9348 21.7019C89.9348 22.2059 89.8602 22.6446 89.7108 23.0179C89.5708 23.3912 89.3422 23.7646 89.0248 24.1379C88.7075 24.5019 88.2875 24.9359 87.7648 25.4399L86.3508 26.7979H90.0048V28.7019H83.2428Z" fill="white"/>
</svg>
