<svg width="49" height="52" viewBox="0 0 49 52" fill="none" xmlns="http://www.w3.org/2000/svg">
<path d="M0.178711 8.61048C0.178711 4.55146 0.178711 2.52195 1.43969 1.26098C2.70066 0 4.73017 0 8.7892 0H23.3045C31.2008 0 35.1489 0 38.2702 1.27027C42.5693 3.01981 45.9801 6.43062 47.7296 10.7297C48.9999 13.851 48.9999 17.7991 48.9999 25.6954V26.9801C48.9999 33.6725 48.9999 37.0187 48.0824 39.7158C46.3607 44.777 42.3862 48.7515 37.325 50.4732C34.6279 51.3907 31.2817 51.3907 24.5893 51.3907C17.8969 51.3907 14.5507 51.3907 11.8536 50.4732C6.79246 48.7515 2.81791 44.777 1.09622 39.7158C0.178711 37.0187 0.178711 33.6725 0.178711 26.9801V8.61048Z" fill="#5ED2F6"/>
<path d="M32.2979 33.404V35.9735H16.8807V33.404H32.2979ZM36.1522 24.4106V26.9802H13.0264V24.4106H36.1522ZM32.2979 15.4172V17.9868H16.8807V15.4172H32.2979Z" fill="white"/>
</svg>
