<svg width="106" height="240" viewBox="0 0 106 240" fill="none" xmlns="http://www.w3.org/2000/svg">
<path d="M0 30C0 13.4315 13.4315 0 30 0H90C98.8366 0 106 7.16344 106 16V192C106 218.51 84.5097 240 58 240H18C8.05887 240 0 231.941 0 222V30Z" fill="#FF714F"/>
<path d="M34.3033 48.944L38.8793 41.744C40.2233 39.664 40.8633 37.712 40.8633 35.92C40.8633 31.76 39.1993 29.68 34.6873 29.68C30.2393 29.68 28.7033 31.728 28.7033 36.72V37.68C28.7033 38.608 28.9593 38.864 29.8873 38.864H31.8713C32.7993 38.864 33.0553 38.608 33.0553 37.68V35.952C33.0553 34.672 33.5673 34.16 34.6873 34.16C35.8713 34.16 36.3193 34.64 36.3193 36.048C36.3193 37.2 35.8393 38.8 34.9753 40.112L29.3753 48.688C29.0233 49.232 28.9593 49.648 28.9593 50.512V52.816C28.9593 53.744 29.2153 54 30.1432 54H39.6793C40.6073 54 40.8633 53.744 40.8633 52.816V50.864C40.8633 49.936 40.6073 49.68 39.6793 49.68H34.6873C34.1433 49.68 34.0473 49.36 34.3033 48.944ZM43.0033 30C42.1073 30 41.8193 30.256 41.8193 31.152V35.76C41.8193 36.688 42.0753 36.944 43.0033 36.944H44.8913C45.8193 36.944 46.0753 36.688 46.0753 35.76V34.896C46.0753 34.448 46.2033 34.32 46.6513 34.32H48.3793C48.9553 34.32 49.0513 34.608 48.8593 35.28L43.5153 52.816C43.2593 53.648 43.5153 54 44.3153 54H46.6193C47.6433 54 47.8673 53.84 48.1873 52.816L53.2753 36.112C53.6273 34.992 53.6593 34.704 53.6593 33.808V31.184C53.6593 30.256 53.4033 30 52.4753 30H43.0033ZM65.8088 40.624C67.5048 38.768 67.6968 38.128 67.6968 34.416V31.184C67.6968 30.256 67.4408 30 66.5128 30H64.4648C63.5368 30 63.2808 30.256 63.2808 31.184V34.416C63.2808 36.656 63.0888 37.104 61.7768 38.288L60.4328 39.504C60.2088 39.696 60.1128 39.728 59.9528 39.728C59.7928 39.728 59.6968 39.664 59.6968 39.408V31.184C59.6968 30.256 59.4408 30 58.5128 30H56.5288C55.6008 30 55.3448 30.256 55.3448 31.184V52.816C55.3448 53.744 55.6008 54 56.5288 54H58.5768C59.5048 54 59.7608 53.744 59.7608 52.816V46.736C59.7608 46.224 59.7928 46.096 60.1448 45.776L61.4248 44.528C61.7128 44.272 61.8728 44.304 61.9688 44.656L64.2728 52.944C64.4968 53.744 64.8168 54 65.7768 54H67.3448C68.5928 54 68.9448 53.424 68.6248 52.272L65.6168 41.328C65.5208 41.008 65.5528 40.88 65.8088 40.624ZM76.7128 39.504V37.36C76.7128 36.496 76.4568 36.24 75.5288 36.24H73.4168C72.4888 36.24 72.2328 36.496 72.2328 37.424V39.504C72.2328 39.952 72.1048 40.08 71.6568 40.08H70.2168C69.2888 40.08 69.0328 40.336 69.0328 41.264V42.736C69.0328 43.664 69.2888 43.92 70.1528 43.92H71.6568C72.1048 43.92 72.2328 44.048 72.2328 44.496V46.576C72.2328 47.504 72.4888 47.76 73.4168 47.76H75.5288C76.4568 47.76 76.7128 47.504 76.7128 46.64V44.496C76.7128 44.048 76.8408 43.92 77.2888 43.92H78.7928C79.6568 43.92 79.9128 43.664 79.9128 42.736V41.264C79.9128 40.336 79.6568 40.08 78.7288 40.08H77.2888C76.8408 40.08 76.7128 39.952 76.7128 39.504Z" fill="white"/>
<path d="M24.7567 70.14C26.7307 70.14 28.0047 69.02 28.1167 67.004H27.2907C27.1647 68.614 26.2687 69.398 24.7427 69.398C22.9507 69.398 22.0827 68.306 22.0827 66.626V63.588C22.0827 61.894 22.9647 60.802 24.7847 60.802C26.3247 60.802 27.1087 61.712 27.2907 63.196H28.1167C27.9347 61.348 26.8427 60.06 24.7567 60.06C22.6147 60.06 21.2147 61.264 21.2147 63.616V66.598C21.2147 68.936 22.5867 70.14 24.7567 70.14ZM34.2702 70H35.1242V63.224H34.2702V67.186C34.2702 68.572 33.3882 69.426 32.3102 69.426C31.1482 69.426 30.6582 68.824 30.6582 67.634V63.224H29.8042V67.76C29.8042 69.384 30.5742 70.14 32.0582 70.14C33.0802 70.14 33.8642 69.65 34.2702 68.614V70ZM39.6175 63.77C40.8075 63.77 41.3395 64.218 41.4375 65.226H42.2495C42.1795 63.854 41.3675 63.084 39.6315 63.084C37.9515 63.084 37.2375 63.854 37.2375 64.932C37.2375 66.038 37.8395 66.5 39.0855 66.766L40.0095 66.976C41.2275 67.256 41.5495 67.452 41.5495 68.236C41.5495 69.02 41.0595 69.468 39.8835 69.468C38.5955 69.468 37.9515 68.978 37.8535 67.816H37.0415C37.1815 69.426 38.1195 70.14 39.8415 70.14C41.5355 70.14 42.4035 69.426 42.4035 68.18C42.4035 67.06 41.8295 66.654 40.3035 66.304L39.4215 66.108C38.4555 65.87 38.0915 65.632 38.0915 64.918C38.0915 64.162 38.5255 63.77 39.6175 63.77ZM47.4491 69.342H46.6791C45.7271 69.342 45.3911 68.95 45.3911 68.152V63.952H47.4491V63.224H45.3911V61.208H44.5231V63.224H43.4451V63.952H44.5231V68.138C44.5231 69.482 45.1251 70.07 46.5391 70.07H47.4491V69.342ZM51.3438 70.14C53.0658 70.14 54.1858 69.146 54.1858 67.144V66.066C54.1858 64.078 53.0658 63.084 51.3438 63.084C49.6358 63.084 48.5298 64.078 48.5298 66.066V67.144C48.5298 69.146 49.6358 70.14 51.3438 70.14ZM51.3438 63.826C52.7018 63.826 53.3178 64.708 53.3178 66.038V67.172C53.3178 68.53 52.7018 69.398 51.3438 69.398C49.9998 69.398 49.3978 68.53 49.3978 67.172V66.038C49.3978 64.708 49.9998 63.826 51.3438 63.826ZM57.1293 66.066C57.1293 64.68 58.0113 63.826 59.1033 63.826C60.2093 63.826 60.6713 64.428 60.6713 65.618V70H61.5253V66.066C61.5253 64.68 62.4073 63.826 63.5133 63.826C64.6193 63.826 65.0813 64.428 65.0813 65.618V70H65.9353V65.492C65.9353 63.854 65.1933 63.084 63.7653 63.084C62.7153 63.084 61.8613 63.588 61.4273 64.596C61.1893 63.56 60.4893 63.084 59.3553 63.084C58.3613 63.084 57.5493 63.588 57.1293 64.568V63.224H56.2613V70H57.1293V66.066ZM73.4315 67.984H72.6055C72.5215 68.796 72.0175 69.286 71.1775 69.398C71.0515 69.412 70.9255 69.412 70.7855 69.412C69.4975 69.412 68.8955 68.614 68.8535 67.34C68.8395 67.116 68.8395 66.878 68.8395 66.64H73.4595V66.066C73.4595 64.078 72.4095 63.084 70.7715 63.084C69.0635 63.084 67.9575 64.078 67.9575 66.066V67.144C67.9575 69.146 69.0635 70.14 70.7575 70.14C72.2695 70.14 73.2915 69.398 73.4315 67.984ZM68.8395 65.954C68.8535 64.652 69.4555 63.798 70.7715 63.798C72.0455 63.798 72.6055 64.498 72.6475 66.066H68.8815L68.8395 65.954ZM76.3519 66.08C76.3519 64.68 77.2059 63.896 78.4379 63.896H78.7879V63.084H78.4379C77.5139 63.084 76.7719 63.518 76.3519 64.428V63.224H75.4839V70H76.3519V66.08ZM82.2737 63.77C83.4637 63.77 83.9957 64.218 84.0937 65.226H84.9057C84.8357 63.854 84.0237 63.084 82.2877 63.084C80.6077 63.084 79.8937 63.854 79.8937 64.932C79.8937 66.038 80.4957 66.5 81.7417 66.766L82.6657 66.976C83.8837 67.256 84.2057 67.452 84.2057 68.236C84.2057 69.02 83.7157 69.468 82.5397 69.468C81.2517 69.468 80.6077 68.978 80.5097 67.816H79.6977C79.8377 69.426 80.7757 70.14 82.4977 70.14C84.1917 70.14 85.0597 69.426 85.0597 68.18C85.0597 67.06 84.4857 66.654 82.9597 66.304L82.0777 66.108C81.1117 65.87 80.7477 65.632 80.7477 64.918C80.7477 64.162 81.1817 63.77 82.2737 63.77Z" fill="white"/>
<path d="M38.1196 123.816C38.1196 124.744 38.3756 125 39.3036 125H41.3516C42.2796 125 42.5356 124.744 42.5356 123.816V102.184C42.5356 101.256 42.2796 101 41.3516 101H36.2956C35.3676 101 35.1116 101.256 35.1116 102.184V104.776C35.1116 105.704 35.3676 105.96 36.2956 105.96H37.5436C37.9916 105.96 38.1196 106.088 38.1196 106.536V123.816ZM57.7406 117.96V108.04C57.7406 102.664 56.2046 100.68 51.5646 100.68C46.9246 100.68 45.3886 102.664 45.3886 108.04V117.96C45.3886 123.368 46.9246 125.32 51.5646 125.32C56.2046 125.32 57.7406 123.368 57.7406 117.96ZM53.1966 106.952V119.048C53.1966 120.328 52.6846 120.84 51.5646 120.84C50.4446 120.84 49.9326 120.328 49.9326 119.048V106.952C49.9326 105.672 50.4446 105.16 51.5646 105.16C52.6846 105.16 53.1966 105.672 53.1966 106.952ZM66.7284 110.504V108.36C66.7284 107.496 66.4724 107.24 65.5444 107.24H63.4324C62.5044 107.24 62.2484 107.496 62.2484 108.424V110.504C62.2484 110.952 62.1204 111.08 61.6724 111.08H60.2324C59.3044 111.08 59.0484 111.336 59.0484 112.264V113.736C59.0484 114.664 59.3044 114.92 60.1684 114.92H61.6724C62.1204 114.92 62.2484 115.048 62.2484 115.496V117.576C62.2484 118.504 62.5044 118.76 63.4324 118.76H65.5444C66.4724 118.76 66.7284 118.504 66.7284 117.64V115.496C66.7284 115.048 66.8564 114.92 67.3044 114.92H68.8084C69.6724 114.92 69.9284 114.664 69.9284 113.736V112.264C69.9284 111.336 69.6724 111.08 68.7444 111.08H67.3044C66.8564 111.08 66.7284 110.952 66.7284 110.504Z" fill="white"/>
<path d="M27.7606 141V137.024L31.1486 131.2H30.2106L27.3546 136.198L24.4846 131.2H23.5186L26.8926 137.01V141H27.7606ZM36.5438 138.984H35.7178C35.6338 139.796 35.1298 140.286 34.2898 140.398C34.1638 140.412 34.0378 140.412 33.8978 140.412C32.6098 140.412 32.0078 139.614 31.9658 138.34C31.9518 138.116 31.9518 137.878 31.9518 137.64H36.5718V137.066C36.5718 135.078 35.5218 134.084 33.8838 134.084C32.1758 134.084 31.0698 135.078 31.0698 137.066V138.144C31.0698 140.146 32.1758 141.14 33.8698 141.14C35.3818 141.14 36.4038 140.398 36.5438 138.984ZM31.9518 136.954C31.9658 135.652 32.5678 134.798 33.8838 134.798C35.1578 134.798 35.7178 135.498 35.7598 137.066H31.9938L31.9518 136.954ZM42.4883 141H43.3563V136.45C43.3563 134.84 42.6003 134.084 40.9483 134.084C39.2683 134.084 38.5403 134.91 38.3723 136.114H39.2123C39.2963 135.344 39.7863 134.826 40.8503 134.826C42.0403 134.826 42.4883 135.302 42.4883 136.576V137.248H40.4723C38.7783 137.248 38.1623 137.948 38.1623 138.928V139.348C38.1623 140.454 38.9183 141.14 40.3463 141.14C41.4803 141.14 42.1523 140.762 42.4883 140.02V141ZM40.5563 140.496C39.5203 140.496 39.0163 140.062 39.0163 139.278V138.942C39.0163 138.256 39.3943 137.822 40.5283 137.822H42.4883V138.606C42.4883 139.95 41.7883 140.496 40.5563 140.496ZM46.5189 137.08C46.5189 135.68 47.3729 134.896 48.6049 134.896H48.9549V134.084H48.6049C47.6809 134.084 46.9389 134.518 46.5189 135.428V134.224H45.6509V141H46.5189V137.08ZM52.4407 134.77C53.6307 134.77 54.1627 135.218 54.2607 136.226H55.0727C55.0027 134.854 54.1907 134.084 52.4547 134.084C50.7747 134.084 50.0607 134.854 50.0607 135.932C50.0607 137.038 50.6627 137.5 51.9087 137.766L52.8327 137.976C54.0507 138.256 54.3727 138.452 54.3727 139.236C54.3727 140.02 53.8827 140.468 52.7067 140.468C51.4187 140.468 50.7747 139.978 50.6767 138.816H49.8647C50.0047 140.426 50.9427 141.14 52.6647 141.14C54.3587 141.14 55.2267 140.426 55.2267 139.18C55.2267 138.06 54.6527 137.654 53.1267 137.304L52.2447 137.108C51.2787 136.87 50.9147 136.632 50.9147 135.918C50.9147 135.162 51.3487 134.77 52.4407 134.77ZM60.7463 141H66.8223V140.258H61.6143V136.282H65.9543V135.554H61.6143V131.942H66.8223V131.2H60.7463V141ZM72.6009 141H73.5949L71.0609 137.444L73.3009 134.224H72.3489L70.5989 136.786L68.7789 134.224H67.7849L70.0389 137.416L67.5329 141H68.4709L70.5009 138.074L72.6009 141ZM78.0691 141.14C79.6371 141.14 80.7291 140.146 80.7291 138.158V137.08C80.7291 135.078 79.6371 134.084 78.0691 134.084C77.0611 134.084 76.2911 134.532 75.9271 135.414V134.224H75.0591V143.8H75.9271V139.852C76.2771 140.65 77.0191 141.14 78.0691 141.14ZM77.9151 140.398C76.6971 140.398 75.9271 139.544 75.9271 138.2V137.15C75.9271 135.61 76.6691 134.826 77.9011 134.826C79.2311 134.826 79.8471 135.708 79.8471 137.066V138.172C79.8471 139.516 79.2311 140.398 77.9151 140.398Z" fill="white"/>
<path d="M39.0344 184.702V188.158C39.0344 189.438 38.5224 189.95 37.3704 189.95C36.2504 189.95 35.7064 189.534 35.7064 188.478V187.742C35.7064 186.814 35.4504 186.558 34.5224 186.558H32.5384C31.6104 186.558 31.3544 186.814 31.3544 187.742V187.87C31.3544 192.51 33.0504 194.43 37.4664 194.43C42.0424 194.43 43.5784 192.478 43.5784 187.07V177.15C43.5784 171.742 42.0424 169.79 37.4024 169.79C32.9224 169.79 31.2264 171.71 31.2264 176.35V179.07C31.2264 183.614 33.0504 185.342 36.0904 185.342C37.4344 185.342 38.1064 185.086 38.7144 184.67C38.8104 184.606 38.8744 184.574 38.9384 184.574C39.0024 184.574 39.0344 184.606 39.0344 184.702ZM35.7704 176.062C35.7704 174.782 36.2824 174.27 37.4024 174.27C38.5224 174.27 39.0344 174.782 39.0344 176.062V179.07C39.0344 180.35 38.5224 180.862 37.4024 180.862C36.2824 180.862 35.7704 180.35 35.7704 179.07V176.062ZM46.3001 170.11C45.4041 170.11 45.1161 170.366 45.1161 171.262V175.87C45.1161 176.798 45.3721 177.054 46.3001 177.054H48.1881C49.1161 177.054 49.3721 176.798 49.3721 175.87V175.006C49.3721 174.558 49.5001 174.43 49.9481 174.43H51.6761C52.2521 174.43 52.3481 174.718 52.1561 175.39L46.8121 192.926C46.5561 193.758 46.8121 194.11 47.6121 194.11H49.9161C50.9401 194.11 51.1641 193.95 51.4841 192.926L56.5721 176.222C56.9241 175.102 56.9561 174.814 56.9561 173.918V171.294C56.9561 170.366 56.7001 170.11 55.7721 170.11H46.3001ZM66.3856 176.83V173.214C66.3856 169.662 65.3296 168.35 62.0656 168.35C58.8016 168.35 57.7456 169.662 57.7456 173.214V176.83C57.7456 180.35 58.8976 181.662 62.0656 181.662C65.2336 181.662 66.3856 180.35 66.3856 176.83ZM60.7536 194.302C60.5616 194.782 60.4976 194.878 60.4976 195.134C60.4976 195.486 60.7536 195.71 61.3296 195.71H62.8976C63.6976 195.71 63.9536 195.518 64.2736 194.814L75.2816 169.854C75.4736 169.406 75.5056 169.31 75.5056 169.086C75.5056 168.734 75.2816 168.51 74.7696 168.51H73.1376C72.3056 168.51 72.0816 168.702 71.7616 169.406L60.7536 194.302ZM61.1056 177.15V172.894C61.1056 172.094 61.3936 171.774 62.0656 171.774C62.7056 171.774 63.0256 172.094 63.0256 172.894V177.15C63.0256 177.886 62.7056 178.238 62.0656 178.238C61.3936 178.238 61.1056 177.886 61.1056 177.15ZM78.2896 191.038V187.422C78.2896 183.87 77.2336 182.558 73.9696 182.558C70.7056 182.558 69.6496 183.87 69.6496 187.422V191.038C69.6496 194.558 70.8016 195.87 73.9696 195.87C77.1376 195.87 78.2896 194.558 78.2896 191.038ZM73.0096 191.358V187.102C73.0096 186.302 73.2976 185.982 73.9696 185.982C74.6096 185.982 74.9296 186.302 74.9296 187.102V191.358C74.9296 192.094 74.6096 192.446 73.9696 192.446C73.2976 192.446 73.0096 192.094 73.0096 191.358Z" fill="white"/>
<path d="M28.3171 205.658V205.014H25.4191V202.116H24.7751V205.014H21.8911V205.658H24.7751V208.556H25.4191V205.658H28.3171ZM32.7803 210.11L35.3563 203.334H34.4743L32.3183 209.214L30.1763 203.334H29.2523L31.8143 210.11H32.7803ZM41.9589 208.094H41.1329C41.0489 208.906 40.5449 209.396 39.7049 209.508C39.5789 209.522 39.4529 209.522 39.3129 209.522C38.0249 209.522 37.4229 208.724 37.3809 207.45C37.3669 207.226 37.3669 206.988 37.3669 206.75H41.9869V206.176C41.9869 204.188 40.9369 203.194 39.2989 203.194C37.5909 203.194 36.4849 204.188 36.4849 206.176V207.254C36.4849 209.256 37.5909 210.25 39.2849 210.25C40.7969 210.25 41.8189 209.508 41.9589 208.094ZM37.3669 206.064C37.3809 204.762 37.9829 203.908 39.2989 203.908C40.5729 203.908 41.1329 204.608 41.1749 206.176H37.4089L37.3669 206.064ZM48.5313 206.064H50.3513L52.9693 210.11H53.9353L51.2333 205.938C52.8293 205.672 53.5853 204.748 53.5853 203.488V202.9C53.5853 201.262 52.6333 200.31 50.1693 200.31H47.6633V210.11H48.5313V206.064ZM50.1693 201.052C52.0593 201.052 52.7173 201.794 52.7173 202.914V203.474C52.7173 204.594 51.9193 205.322 50.1833 205.322H48.5313V201.052H50.1693ZM59.456 210.11H60.324V205.56C60.324 203.95 59.568 203.194 57.916 203.194C56.236 203.194 55.508 204.02 55.34 205.224H56.18C56.264 204.454 56.754 203.936 57.818 203.936C59.008 203.936 59.456 204.412 59.456 205.686V206.358H57.44C55.746 206.358 55.13 207.058 55.13 208.038V208.458C55.13 209.564 55.886 210.25 57.314 210.25C58.448 210.25 59.12 209.872 59.456 209.13V210.11ZM57.524 209.606C56.488 209.606 55.984 209.172 55.984 208.388V208.052C55.984 207.366 56.362 206.932 57.496 206.932H59.456V207.716C59.456 209.06 58.756 209.606 57.524 209.606ZM65.66 209.452H64.89C63.938 209.452 63.602 209.06 63.602 208.262V204.062H65.66V203.334H63.602V201.318H62.734V203.334H61.656V204.062H62.734V208.248C62.734 209.592 63.336 210.18 64.75 210.18H65.66V209.452ZM67.7011 201.934C68.0791 201.934 68.3591 201.668 68.3591 201.318C68.3591 200.968 68.0791 200.702 67.7011 200.702C67.3231 200.702 67.0431 200.968 67.0431 201.318C67.0431 201.668 67.3231 201.934 67.7011 201.934ZM67.2671 210.11H68.1351V203.334H67.2671V210.11ZM71.3891 206.176C71.3891 204.79 72.2711 203.936 73.3911 203.936C74.5811 203.936 75.0851 204.538 75.0851 205.728V210.11H75.9391V205.602C75.9391 203.964 75.1551 203.194 73.6431 203.194C72.6351 203.194 71.8091 203.684 71.3891 204.65V203.334H70.5211V210.11H71.3891V206.176ZM80.836 213.05C82.698 213.05 83.566 212.084 83.566 210.04V203.334H82.712V204.468C82.348 203.67 81.606 203.194 80.57 203.194C78.988 203.194 77.91 204.188 77.91 206.176V207.114C77.91 209.116 78.988 210.11 80.57 210.11C81.578 210.11 82.348 209.662 82.712 208.808V210.054C82.712 211.692 82.152 212.308 80.808 212.308C79.688 212.308 79.044 211.888 78.918 211.006H78.106C78.246 212.336 79.212 213.05 80.836 213.05ZM80.724 203.936C81.956 203.936 82.712 204.79 82.712 206.134V207.058C82.712 208.584 81.97 209.368 80.738 209.368C79.394 209.368 78.792 208.5 78.792 207.128V206.162C78.792 204.818 79.394 203.936 80.724 203.936Z" fill="white"/>
<line x1="5" y1="154.75" x2="100.892" y2="154.75" stroke="url(#paint0_linear_1_4019)" stroke-width="0.5"/>
<line x1="5" y1="84.75" x2="100.892" y2="84.75" stroke="url(#paint1_linear_1_4019)" stroke-width="0.5"/>
<defs>
<linearGradient id="paint0_linear_1_4019" x1="5" y1="155" x2="100.892" y2="155" gradientUnits="userSpaceOnUse">
<stop stop-color="white" stop-opacity="0"/>
<stop offset="0.53125" stop-color="white"/>
<stop offset="1" stop-color="white" stop-opacity="0"/>
</linearGradient>
<linearGradient id="paint1_linear_1_4019" x1="5" y1="85" x2="100.892" y2="85" gradientUnits="userSpaceOnUse">
<stop stop-color="white" stop-opacity="0"/>
<stop offset="0.53125" stop-color="white"/>
<stop offset="1" stop-color="white" stop-opacity="0"/>
</linearGradient>
</defs>
</svg>
