<svg width="120" height="153" viewBox="0 0 120 153" fill="none" xmlns="http://www.w3.org/2000/svg">
<circle cx="59.9991" cy="76.5425" r="59.8204" fill="white"/>
<circle cx="59.9968" cy="76.5424" r="41.5317" fill="#FBF1CC" stroke="#FBF1CC" stroke-width="0.887143"/>
<path fill-rule="evenodd" clip-rule="evenodd" d="M45.1958 51.3658H56.3048L66.3119 69.1684C66.5262 69.5459 66.8392 69.8436 67.1951 70.0323H52.2573L45.1958 51.3574V51.3658ZM60.0563 72.8254C68.5457 72.8254 75.4272 79.5564 75.4272 87.8601C75.4272 96.1638 68.5457 102.895 60.0563 102.895C51.567 102.891 44.6855 96.1596 44.6855 87.8559C44.6855 79.5522 51.567 72.8254 60.0563 72.8254ZM60.0563 79.179L62.6246 85.3103L69.386 85.8094L64.211 90.1038L65.8188 96.5371L60.0563 93.0436L54.2939 96.5371L55.9017 90.1038L50.7224 85.8052L57.4838 85.3061L60.0563 79.179ZM61.4198 51.3658H74.4196L69.1888 65.1969L61.4198 51.3658Z" fill="#7A4D99"/>
<circle cx="60" cy="76.5427" r="59.5564" stroke="#7A4D99" stroke-width="0.887143"/>
<path d="M11.2449 52.1248C11.4153 51.6758 11.6771 51.1071 12.0781 50.4231C12.5734 49.5876 13.1255 49.0862 13.7042 48.9C14.2265 48.7165 14.829 48.7891 15.4062 49.1319C15.9993 49.4762 16.3651 49.9354 16.5081 50.4619C16.7199 51.1954 16.5338 52.0678 16.0559 52.8889C15.9034 53.1472 15.761 53.3824 15.6016 53.5438L18.2306 55.0893L17.7338 55.9406L11.2449 52.1248ZM14.9017 53.1414C15.0612 52.98 15.2179 52.7622 15.3806 52.4808C15.982 51.4548 15.8589 50.5453 14.9469 50.0108C14.0812 49.4966 13.301 49.8644 12.7563 50.7994C12.537 51.1717 12.4046 51.472 12.3564 51.6438L14.9017 53.1414Z" fill="#7A4D99"/>
<path d="M18.9993 47.0635C18.5004 46.6559 18.059 46.3178 17.6364 46.0376L18.1818 45.3512L19.0443 45.9854L19.0719 45.9479C18.6502 45.315 18.6582 44.5461 19.0673 44.0312C19.1398 43.9418 19.1935 43.8827 19.2702 43.8338L20.0014 44.4155C19.9231 44.4803 19.8521 44.5539 19.7622 44.6577C19.3342 45.2028 19.4434 45.9186 19.9347 46.4938C20.0211 46.5981 20.1306 46.7126 20.2647 46.8214L22.5403 48.6304L21.9469 49.4005L18.9993 47.0635Z" fill="#7A4D99"/>
<path d="M24.1842 42.9C25.1369 43.8553 26.1333 43.6602 26.8551 42.9743C27.3668 42.4771 27.5948 42.0976 27.7506 41.7193L28.3709 42.1143C28.2254 42.4694 27.9174 43.0178 27.2999 43.6173C26.0751 44.7932 24.578 44.6848 23.4396 43.4876C22.3012 42.2904 22.0992 40.684 23.2529 39.5816C24.5472 38.3481 25.9715 39.1472 26.6646 39.8777C26.8029 40.0269 26.8951 40.1558 26.9599 40.2341L24.1842 42.9ZM25.8003 40.3738C25.3709 39.9086 24.4979 39.3857 23.6877 40.1596C22.9572 40.8527 23.2825 41.8293 23.7044 42.374L25.8003 40.3738Z" fill="#7A4D99"/>
<path d="M31.3167 40.0576L28.0642 35.6715L28.8652 35.0812L32.1177 39.4673L31.3167 40.0576ZM28.0408 33.7852C28.2481 34.0532 28.2138 34.4188 27.8952 34.6535C27.6113 34.8593 27.2487 34.7932 27.05 34.518C26.8441 34.2342 26.8871 33.8614 27.1797 33.6483C27.481 33.428 27.8262 33.5085 28.0408 33.7852Z" fill="#7A4D99"/>
<path d="M33.2098 33.7816C32.9526 33.2764 32.734 32.8711 32.4981 32.4801L33.2726 32.0878L33.7141 32.8508L33.7474 32.8379C33.7794 32.2396 34.0184 31.5725 34.8189 31.1585C35.4761 30.8193 36.1926 30.9587 36.6943 31.4227L36.7117 31.4083C36.7286 31.0571 36.8061 30.7437 36.9253 30.4983C37.1042 30.1302 37.3637 29.8419 37.827 29.6048C38.4755 29.2728 39.6363 29.2053 40.5116 30.8989L41.9748 33.7622L41.1149 34.2106L39.6977 31.456C39.2162 30.5208 38.5871 30.1331 37.8793 30.4996C37.3741 30.7569 37.1759 31.3316 37.2481 31.8435C37.2665 31.9895 37.3223 32.1631 37.4043 32.3151L38.9422 35.3216L38.0751 35.7614L36.5846 32.8475C36.1923 32.0731 35.5632 31.6854 34.8814 32.0303C34.3256 32.3149 34.1532 32.9561 34.2326 33.4767C34.2495 33.6386 34.3068 33.7963 34.3816 33.9397L35.8864 36.8709L35.0194 37.3107L33.2098 33.7816Z" fill="#7A4D99"/>
<path d="M49.3273 29.9854C49.4847 30.5293 49.6163 31.0067 49.7712 31.406L48.9236 31.6392L48.634 30.7942L48.6095 30.7999C48.475 31.2924 48.0798 32.001 47.141 32.2657C46.3179 32.4931 45.1968 32.3077 44.6804 30.4634L43.8307 27.3851L44.7768 27.1291L45.585 30.0512C45.8596 31.0551 46.358 31.639 47.2302 31.4001C47.8725 31.2199 48.1907 30.6484 48.2514 30.1731C48.2663 30.0141 48.2509 29.8363 48.2037 29.6555L47.3039 26.4282L48.2586 26.165L49.3273 29.9854Z" fill="#7A4D99"/>
<path d="M52.9247 26.6992C52.8815 26.1339 52.8438 25.6814 52.7743 25.2259L53.6461 25.1634L53.7563 26.0396L53.7881 26.0426C54.0556 25.4985 54.5283 24.9896 55.4246 24.9214C56.1677 24.8628 56.762 25.2794 57.0478 25.9075L57.0724 25.9018C57.2222 25.5871 57.4224 25.3333 57.6325 25.1446C57.9383 24.8766 58.29 24.7172 58.8148 24.6783C59.5333 24.6254 60.6422 25.0261 60.7697 26.9142L60.9903 30.1178L60.0216 30.1873L59.8137 27.1051C59.743 26.0642 59.3112 25.4544 58.5204 25.5085C57.9551 25.5517 57.5448 25.9942 57.4104 26.4867C57.3739 26.6196 57.356 26.8103 57.3714 26.9882L57.6088 30.3537L56.6402 30.4232L56.4169 27.1632C56.3544 26.2914 55.9297 25.6904 55.1794 25.7402C54.5578 25.7861 54.14 26.3081 54.02 26.818C53.9733 26.974 53.9656 27.1416 53.9738 27.3108L54.2027 30.5954L53.2341 30.6648L52.9247 26.6992Z" fill="#7A4D99"/>
<path d="M74.8097 33.5314C73.8789 33.0271 72.9756 32.4854 72.1894 31.9787C72.0538 31.8858 71.9095 31.8001 71.7694 31.7549C70.0277 31.2627 68.8444 29.6043 69.4208 27.2211C69.9956 24.8538 71.8217 23.6782 73.812 24.1696C75.8183 24.6625 76.7408 26.5369 76.2156 28.7165C75.749 30.613 74.5724 31.617 73.2452 31.749L73.2335 31.788C73.9204 32.1571 74.6797 32.525 75.2802 32.7898L74.8097 33.5314ZM75.1913 28.5242C75.5469 27.0423 75.1543 25.3298 73.5944 24.9509C71.9796 24.5589 70.8239 25.8535 70.4492 27.4539C70.0616 29.021 70.5744 30.6486 72.0635 31.0128C73.5917 31.3887 74.7846 30.2098 75.1913 28.5242Z" fill="#7A4D99"/>
<path d="M83.0822 34.1712C82.8494 34.6865 82.6544 35.1412 82.5116 35.5527L81.7119 35.1891L82.0308 34.3531L82.0078 34.3429C81.5877 34.6322 80.831 34.922 79.9461 34.5263C79.1695 34.1728 78.416 33.3164 79.2132 31.5713L80.5282 28.664L81.4362 29.0699L80.1765 31.814C79.7431 32.7595 79.751 33.5299 80.5737 33.9037C81.1815 34.1772 81.7964 33.9463 82.1399 33.6177C82.2544 33.5082 82.3575 33.3495 82.4288 33.1878L83.8065 30.1261L84.7144 30.532L83.0822 34.1712Z" fill="#7A4D99"/>
<path d="M88.1169 38.9733L88.4309 38.3613L88.4006 38.3424C87.9101 38.5289 87.2047 38.5269 86.5555 38.0972C85.6352 37.4817 85.5888 36.5232 86.0359 35.8596C86.7647 34.7575 88.1478 34.7991 89.8962 35.9893L89.9615 35.8912C90.2054 35.5133 90.5559 34.7684 89.6283 34.1442C89.2056 33.8641 88.6756 33.7021 88.2189 33.6993L88.3943 33.0263C88.9305 33.0365 89.5775 33.2335 90.1589 33.6168C91.5553 34.5415 91.2527 35.7158 90.6459 36.6289L89.5165 38.3269C89.2552 38.7193 89.017 39.1219 88.8642 39.4683L88.1169 38.9733ZM89.5447 36.5737C88.6489 35.9525 87.5273 35.4303 86.9307 36.3204C86.5678 36.8556 86.7615 37.3548 87.1842 37.635C87.7728 38.027 88.4019 37.9016 88.7901 37.6093C88.8683 37.5445 88.9568 37.4566 89.0119 37.3816L89.5447 36.5737Z" fill="#7A4D99"/>
<path d="M96.904 35.6529L97.6523 36.3084L92.4096 42.3668L91.6527 41.7185L96.904 35.6529Z" fill="#7A4D99"/>
<path d="M95.1171 44.9451L99.0783 41.1798L99.7642 41.9016L95.7959 45.6582L95.1171 44.9451ZM100.954 40.9308C100.715 41.173 100.353 41.1791 100.075 40.8965C99.8344 40.6414 99.86 40.283 100.106 40.0496C100.361 39.8089 100.73 39.8114 100.987 40.068C101.242 40.3405 101.209 40.6902 100.954 40.9308Z" fill="#7A4D99"/>
<path d="M104.535 45.1479L103.284 46.0968L104.148 47.2281L103.544 47.6846L102.68 46.5532L100.339 48.346C99.8027 48.7607 99.6065 49.1431 99.942 49.5835C100.099 49.7907 100.239 49.924 100.344 49.9981L99.7775 50.4821C99.6029 50.3775 99.3737 50.1716 99.1375 49.8688C98.8596 49.498 98.7509 49.119 98.817 48.7564C98.8788 48.3533 99.2022 47.9828 99.7121 47.5896L102.079 45.7753L101.565 45.1017L102.169 44.6453L102.683 45.3189L103.728 44.5269L104.535 45.1479Z" fill="#7A4D99"/>
<path d="M106.545 50.8686L104.326 53.4985C104.075 53.7797 103.764 54.1112 103.524 54.3533L103.539 54.3707C103.874 54.298 104.294 54.185 104.702 54.111L108.025 53.4688L108.549 54.3838L104.433 55.0078C102.456 55.3114 101.385 55.3633 100.532 55.0587C99.9182 54.8488 99.5333 54.508 99.3749 54.3168L99.9794 53.684C100.171 53.8623 100.473 54.067 100.829 54.1967C101.145 54.3306 101.65 54.426 102.199 54.3813C102.312 54.3759 102.393 54.3674 102.443 54.3401C102.494 54.3128 102.548 54.2537 102.638 54.1499L106.018 49.9131L106.545 50.8686Z" fill="#7A4D99"/>
<path d="M109.259 99.1756C109.114 99.6205 108.886 100.186 108.528 100.87C108.086 101.705 107.572 102.217 107.017 102.423C106.517 102.624 105.927 102.579 105.348 102.27C104.755 101.96 104.377 101.528 104.212 101.021C103.971 100.315 104.111 99.4572 104.538 98.6367C104.674 98.3784 104.802 98.1432 104.949 97.9791L102.316 96.5853L102.759 95.7345L109.259 99.1756ZM105.65 98.3413C105.502 98.5054 105.36 98.7243 105.215 99.0055C104.678 100.031 104.841 100.912 105.754 101.394C106.622 101.858 107.364 101.466 107.85 100.532C108.046 100.16 108.161 99.8614 108.199 99.6918L105.65 98.3413Z" fill="#7A4D99"/>
<path d="M101.948 104.439C102.453 104.815 102.899 105.125 103.324 105.38L102.825 106.072L101.955 105.491L101.93 105.529C102.371 106.128 102.399 106.877 102.025 107.397C101.959 107.487 101.909 107.547 101.837 107.598L101.097 107.062C101.171 106.996 101.236 106.921 101.319 106.816C101.71 106.266 101.57 105.574 101.064 105.034C100.975 104.936 100.863 104.829 100.727 104.729L98.4253 103.063L98.9667 102.287L101.948 104.439Z" fill="#7A4D99"/>
<path d="M97.0955 108.718C96.1225 107.828 95.1614 108.06 94.491 108.76C94.0163 109.266 93.8122 109.646 93.6784 110.021L93.0556 109.663C93.1805 109.31 93.4545 108.763 94.0274 108.152C95.1644 106.954 96.6275 106.995 97.7928 108.113C98.9581 109.231 99.231 110.788 98.1597 111.912C96.9577 113.169 95.5328 112.451 94.8232 111.769C94.6814 111.63 94.5856 111.508 94.5188 111.434L97.0955 108.718ZM95.6414 111.249C96.0816 111.684 96.9565 112.156 97.7088 111.367C98.3874 110.661 98.0243 109.723 97.5877 109.21L95.6414 111.249Z" fill="#7A4D99"/>
<path d="M90.2863 111.793L93.6614 115.928L92.9094 116.537L89.5342 112.402L90.2863 111.793ZM93.7737 117.765C93.559 117.513 93.5751 117.155 93.8743 116.913C94.141 116.7 94.4973 116.749 94.7038 117.009C94.9177 117.276 94.8935 117.642 94.6187 117.862C94.3357 118.089 93.9957 118.026 93.7737 117.765Z" fill="#7A4D99"/>
<path d="M88.7367 117.99C89.0112 118.472 89.2432 118.857 89.4914 119.228L88.7559 119.643L88.2897 118.919L88.2579 118.933C88.255 119.517 88.0539 120.178 87.294 120.615C86.6701 120.974 85.9657 120.869 85.4552 120.438L85.4389 120.453C85.4391 120.796 85.3785 121.104 85.274 121.349C85.1172 121.715 84.8781 122.007 84.4383 122.258C83.8225 122.609 82.6952 122.724 81.7625 121.111L80.202 118.384L81.0181 117.91L82.5288 120.534C83.042 121.425 83.6729 121.775 84.3449 121.388C84.8247 121.116 84.9905 120.547 84.8959 120.052C84.8711 119.91 84.8085 119.743 84.7215 119.599L83.0814 116.734L83.905 116.269L85.4944 119.045C85.9132 119.783 86.5442 120.134 87.1918 119.768C87.7196 119.467 87.8571 118.835 87.7551 118.331C87.731 118.174 87.6677 118.023 87.5881 117.886L85.9838 115.094L86.8073 114.628L88.7367 117.99Z" fill="#7A4D99"/>
<path d="M73.2203 122.378C73.0412 121.855 72.8904 121.395 72.7206 121.012L73.5351 120.749L73.857 121.56L73.8807 121.553C73.9883 121.068 74.3396 120.36 75.2413 120.062C76.0321 119.805 77.1326 119.938 77.7229 121.713L78.6962 124.677L77.787 124.967L76.8615 122.154C76.5466 121.187 76.0335 120.64 75.1954 120.91C74.5785 121.113 74.2957 121.683 74.2591 122.149C74.2521 122.305 74.2756 122.477 74.3301 122.651L75.3592 125.758L74.442 126.055L73.2203 122.378Z" fill="#7A4D99"/>
<path d="M69.8763 125.734C69.9452 126.283 70.0033 126.723 70.0926 127.164L69.2466 127.262L69.0978 126.413L69.0667 126.411C68.8319 126.953 68.3957 127.469 67.5261 127.574C66.8052 127.662 66.2067 127.282 65.8986 126.682L65.8749 126.689C65.744 127.002 65.561 127.258 65.3654 127.451C65.0803 127.725 64.7454 127.895 64.2362 127.955C63.5389 128.038 62.4401 127.695 62.2264 125.86L61.8599 122.748L62.7999 122.639L63.1483 125.633C63.2665 126.645 63.716 127.22 64.4835 127.134C65.0319 127.068 65.4105 126.619 65.5181 126.133C65.5474 126.002 65.5558 125.815 65.5324 125.643L65.1417 122.373L66.0817 122.264L66.4536 125.431C66.5557 126.278 66.9978 126.846 67.7261 126.765C68.3293 126.694 68.7114 126.167 68.8041 125.665C68.8422 125.511 68.8418 125.348 68.8258 125.183L68.4472 121.992L69.3871 121.883L69.8763 125.734Z" fill="#7A4D99"/>
<path d="M48.2345 120.012C49.1648 120.464 50.0701 120.953 50.8598 121.413C50.9963 121.498 51.1408 121.575 51.2794 121.613C52.9988 122.018 54.2298 123.584 53.7814 125.931C53.3337 128.263 51.6111 129.486 49.6496 129.092C47.6725 128.698 46.6853 126.911 47.0935 124.764C47.458 122.896 48.5562 121.867 49.8425 121.682L49.852 121.644C49.1656 121.313 48.4088 120.987 47.8114 120.755L48.2345 120.012ZM48.1001 124.908C47.824 126.367 48.2874 128.019 49.8245 128.322C51.4156 128.635 52.4798 127.324 52.7688 125.748C53.072 124.204 52.4956 122.64 51.0281 122.349C49.5222 122.048 48.4162 123.248 48.1001 124.908Z" fill="#7A4D99"/>
<path d="M40.1512 119.742C40.3535 119.23 40.5218 118.778 40.6414 118.371L41.4374 118.691L41.1664 119.519L41.1894 119.528C41.5847 119.229 42.3079 118.914 43.1884 119.262C43.9614 119.573 44.7358 120.375 44.0422 122.11L42.8993 124.999L41.9958 124.642L43.0925 121.915C43.4698 120.975 43.4256 120.224 42.6067 119.895C42.0019 119.655 41.414 119.906 41.095 120.241C40.9887 120.352 40.8958 120.511 40.8341 120.672L39.6375 123.715L38.7341 123.358L40.1512 119.742Z" fill="#7A4D99"/>
<path d="M35.0218 115.278L34.745 115.888L34.7754 115.905C35.2443 115.702 35.9313 115.674 36.5838 116.065C37.5093 116.626 37.5998 117.558 37.1959 118.223C36.5384 119.329 35.1895 119.347 33.4305 118.262L33.3715 118.36C33.1519 118.739 32.8458 119.48 33.7787 120.049C34.2036 120.304 34.7274 120.439 35.1723 120.422L35.0334 121.085C34.5107 121.098 33.8714 120.934 33.287 120.585C31.8833 119.744 32.1224 118.587 32.67 117.671L33.6895 115.968C33.9253 115.574 34.1382 115.172 34.2706 114.828L35.0218 115.278ZM33.7451 117.678C34.6468 118.245 35.7638 118.706 36.3026 117.813C36.6307 117.276 36.4184 116.797 35.9935 116.542C35.4018 116.186 34.7951 116.335 34.4309 116.636C34.3577 116.703 34.2758 116.792 34.2256 116.868L33.7451 117.678Z" fill="#7A4D99"/>
<path d="M26.624 118.889L25.8643 118.282L30.6827 112.154L31.4506 112.754L26.624 118.889Z" fill="#7A4D99"/>
<path d="M27.9235 109.757L24.2443 113.596L23.5422 112.922L27.2287 109.091L27.9235 109.757ZM22.4298 113.918C22.6513 113.672 23.0029 113.651 23.2871 113.914C23.5336 114.153 23.5256 114.503 23.2967 114.741C23.0597 114.986 22.7007 115 22.4387 114.761C22.1774 114.506 22.1928 114.164 22.4298 113.918Z" fill="#7A4D99"/>
<path d="M18.7418 109.963L19.9157 108.984L19.0207 107.919L19.5874 107.448L20.4823 108.514L22.6771 106.667C23.1794 106.24 23.3524 105.859 23.0048 105.444C22.8421 105.249 22.6997 105.125 22.5936 105.057L23.1224 104.561C23.2974 104.656 23.5304 104.846 23.7747 105.131C24.0629 105.481 24.1867 105.846 24.1396 106.202C24.0984 106.597 23.801 106.972 23.3231 107.377L21.1039 109.246L21.6365 109.881L21.0698 110.351L20.5373 109.717L19.5577 110.533L18.7418 109.963Z" fill="#7A4D99"/>
<path d="M16.5082 104.474L18.5446 101.816C18.7756 101.531 19.0635 101.195 19.2849 100.949L19.2701 100.932C18.9468 101.018 18.5436 101.146 18.15 101.235L14.944 102.003L14.3909 101.134L18.369 100.35C20.2796 99.9693 21.3203 99.873 22.1658 100.133C22.7733 100.312 23.1643 100.627 23.3277 100.807L22.7689 101.449C22.5738 101.284 22.2705 101.097 21.917 100.986C21.6028 100.869 21.1073 100.798 20.5744 100.865C20.4649 100.875 20.3864 100.887 20.3384 100.915C20.2903 100.944 20.2409 101.004 20.1582 101.109L17.0674 105.382L16.5082 104.474Z" fill="#7A4D99"/>
</svg>
