<svg width="62" height="22" viewBox="0 0 62 22" fill="none" xmlns="http://www.w3.org/2000/svg">
<path fill-rule="evenodd" clip-rule="evenodd" d="M47.0768 15.344L50.2407 20.44H55.7568L50.0168 11.984L55.0008 6.272H49.9608L45.8167 11.228V0H41.4487V20.44H45.8167V16.8L47.0768 15.344ZM0 0.839999V20.44H12.46V16.632H4.368V0.839999H0ZM14.1072 19.068C15.3392 20.1693 16.9819 20.72 19.0352 20.72C21.1072 20.72 22.7592 20.1693 23.9912 19.068C25.2232 17.948 25.8392 16.352 25.8392 14.28V12.46C25.8392 10.3693 25.2232 8.77333 23.9912 7.672C22.7592 6.552 21.1072 5.992 19.0352 5.992C16.9819 5.992 15.3392 6.552 14.1072 7.672C12.8752 8.77333 12.2592 10.3693 12.2592 12.46V14.28C12.2592 16.352 12.8752 17.948 14.1072 19.068ZM16.7392 12.9721V14.084C16.7392 14.9427 16.9259 15.6333 17.2992 16.156C17.6725 16.66 18.2512 16.912 19.0352 16.912C19.8379 16.912 20.4259 16.66 20.7992 16.156C21.1725 15.6333 21.3592 14.9427 21.3592 14.084V12.8534C20.8099 13.5516 19.9573 14 19 14C18.0981 14 17.2891 13.602 16.7392 12.9721ZM33.266 20.72C31.2126 20.72 29.57 20.1693 28.338 19.068C27.106 17.948 26.49 16.352 26.49 14.28V12.46C26.49 10.3693 27.106 8.77333 28.338 7.672C29.57 6.552 31.2126 5.992 33.266 5.992C35.338 5.992 36.99 6.552 38.222 7.672C39.454 8.77333 40.07 10.3693 40.07 12.46V14.28C40.07 16.352 39.454 17.948 38.222 19.068C36.99 20.1693 35.338 20.72 33.266 20.72ZM30.97 14.084V13.2089C31.5042 13.7001 32.2171 14 33 14C34.1031 14 35.0672 13.4046 35.5884 12.5176C35.5894 12.5632 35.59 12.6093 35.59 12.656V14.084C35.59 14.9427 35.4033 15.6333 35.03 16.156C34.6566 16.66 34.0686 16.912 33.266 16.912C32.482 16.912 31.9033 16.66 31.53 16.156C31.1566 15.6333 30.97 14.9427 30.97 14.084ZM57.4568 20.312C57.9422 20.7787 58.5768 21.012 59.3608 21.012C60.1448 21.012 60.7702 20.7787 61.2368 20.312C61.7222 19.8453 61.9648 19.2387 61.9648 18.492C61.9648 17.7267 61.7222 17.12 61.2368 16.672C60.7702 16.224 60.1448 16 59.3608 16C58.5768 16 57.9422 16.224 57.4568 16.672C56.9902 17.12 56.7568 17.7267 56.7568 18.492C56.7568 19.2387 56.9902 19.8453 57.4568 20.312Z" fill="#513962"/>
</svg>
