<svg width="112" height="46" viewBox="0 0 112 46" fill="none" xmlns="http://www.w3.org/2000/svg">
<path d="M0 16.0465C0 7.18427 7.18427 0 16.0465 0H104.778C108.306 0 111.167 2.8604 111.167 6.38889V21.3953C111.167 34.9841 100.151 46 86.562 46H6.38889C2.8604 46 0 43.1396 0 39.6111V16.0465Z" fill="url(#paint0_linear_1_3180)"/>
<path d="M27.556 26.8624H25.5449V29.708H22.956V26.8624H16.3449V24.8085L22.5067 14.7313H25.5449V24.6159H27.556V26.8624ZM18.9979 24.6159H22.956V18.1117L18.9979 24.6159ZM34.9376 29.922C33.3401 29.922 32.0777 29.4941 31.1506 28.6382C30.2235 27.7824 29.7599 26.57 29.7599 25.001V19.4596C29.7599 17.8764 30.2235 16.6568 31.1506 15.801C32.0777 14.9452 33.3401 14.5173 34.9376 14.5173C36.5494 14.5173 37.8188 14.9452 38.746 15.801C39.6731 16.6568 40.1367 17.8764 40.1367 19.4596V24.9796C40.1367 26.5629 39.6731 27.7824 38.746 28.6382C37.8188 29.4941 36.5494 29.922 34.9376 29.922ZM34.9376 16.7638C34.0818 16.7638 33.4471 17.0206 33.0334 17.5341C32.6198 18.0333 32.4129 18.7037 32.4129 19.5452V24.9154C32.4129 25.7427 32.6198 26.4131 33.0334 26.9266C33.4471 27.4258 34.0818 27.6754 34.9376 27.6754C35.8219 27.6754 36.4709 27.4258 36.8846 26.9266C37.2982 26.4131 37.505 25.7427 37.505 24.9154V19.5452C37.505 18.7037 37.2982 18.0333 36.8846 17.5341C36.4709 17.0206 35.8219 16.7638 34.9376 16.7638ZM45.8248 21.8773C45.1259 21.8773 44.4912 21.7418 43.9206 21.4708C43.3501 21.1998 42.9008 20.8075 42.5727 20.2941C42.2447 19.7663 42.0806 19.153 42.0806 18.4541V17.9406C42.0806 17.2274 42.2447 16.6141 42.5727 16.1006C42.9008 15.5728 43.3501 15.1734 43.9206 14.9024C44.4912 14.6172 45.1259 14.4745 45.8248 14.4745C46.5523 14.4745 47.1941 14.6172 47.7504 14.9024C48.3067 15.1734 48.7488 15.5728 49.0769 16.1006C49.405 16.6141 49.569 17.2274 49.569 17.9406V18.4541C49.569 19.153 49.405 19.7663 49.0769 20.2941C48.7488 20.8075 48.3067 21.1998 47.7504 21.4708C47.1941 21.7418 46.5523 21.8773 45.8248 21.8773ZM44.9904 29.708L55.2174 14.7313H57.143L46.916 29.708H44.9904ZM45.8248 16.1006C45.24 16.1006 44.7764 16.2789 44.4341 16.6354C44.1061 16.9778 43.942 17.4342 43.942 18.0048V18.3899C43.942 18.9319 44.1061 19.3812 44.4341 19.7378C44.7764 20.0944 45.24 20.2727 45.8248 20.2727C46.4239 20.2727 46.8875 20.0944 47.2155 19.7378C47.5436 19.3812 47.7076 18.9248 47.7076 18.3685V18.0048C47.7076 17.4485 47.5436 16.992 47.2155 16.6354C46.8875 16.2789 46.4239 16.1006 45.8248 16.1006ZM56.4369 29.9434C55.738 29.9434 55.1033 29.8079 54.5327 29.5368C53.9622 29.2658 53.5129 28.8736 53.1848 28.3601C52.8568 27.8323 52.6927 27.219 52.6927 26.5201V26.0066C52.6927 25.2934 52.8568 24.6801 53.1848 24.1666C53.5129 23.6389 53.9622 23.2395 54.5327 22.9685C55.1033 22.6975 55.738 22.562 56.4369 22.562C57.1644 22.562 57.8062 22.6975 58.3625 22.9685C58.9188 23.2395 59.3609 23.6389 59.689 24.1666C60.0171 24.6801 60.1811 25.2934 60.1811 26.0066V26.5201C60.1811 27.219 60.0171 27.8323 59.689 28.3601C59.3609 28.8736 58.9188 29.2658 58.3625 29.5368C57.8062 29.8079 57.1644 29.9434 56.4369 29.9434ZM56.4369 24.1666C55.8521 24.1666 55.3885 24.3449 55.0462 24.7015C54.7182 25.0581 54.5541 25.5145 54.5541 26.0708V26.4559C54.5541 27.0122 54.7182 27.4686 55.0462 27.8252C55.3885 28.1675 55.8521 28.3387 56.4369 28.3387C57.0217 28.3387 57.4782 28.1604 57.8062 27.8038C58.1485 27.4472 58.3197 26.9908 58.3197 26.4345V26.0708C58.3197 25.5145 58.1485 25.0581 57.8062 24.7015C57.4782 24.3449 57.0217 24.1666 56.4369 24.1666ZM72.5072 29.922C71.038 29.922 69.8613 29.5154 68.9769 28.7024C68.0926 27.8894 67.6504 26.6984 67.6504 25.1294V23.6317C67.6504 22.077 68.0926 20.8931 68.9769 20.0801C69.8613 19.2528 71.038 18.8392 72.5072 18.8392C73.9906 18.8392 75.1744 19.2528 76.0588 20.0801C76.9431 20.8931 77.3853 22.077 77.3853 23.6317V25.1294C77.3853 26.6984 76.9431 27.8894 76.0588 28.7024C75.1744 29.5154 73.9906 29.922 72.5072 29.922ZM72.5072 21.0857C71.7512 21.0857 71.1949 21.3282 70.8383 21.8131C70.4817 22.2838 70.3034 22.9185 70.3034 23.7173V25.0438C70.3034 25.8426 70.4817 26.4844 70.8383 26.9694C71.1949 27.4401 71.7512 27.6754 72.5072 27.6754C73.2774 27.6754 73.8408 27.4401 74.1974 26.9694C74.5682 26.4844 74.7537 25.8426 74.7537 25.0438V23.7173C74.7537 22.9185 74.5682 22.2838 74.1974 21.8131C73.8408 21.3282 73.2774 21.0857 72.5072 21.0857ZM85.7034 21.2354H83.0932V29.708H80.5043V21.2354H78.8783V19.0531H80.5043V17.855C80.5043 16.5998 80.8395 15.6441 81.5099 14.988C82.1803 14.3176 83.2002 13.9824 84.5695 13.9824H86.1313V16.1434H84.7834C84.113 16.1434 83.6637 16.3003 83.4355 16.6141C83.2073 16.9279 83.0932 17.3558 83.0932 17.8978V19.0531H85.7034V21.2354ZM93.4342 21.2354H90.8239V29.708H88.2351V21.2354H86.609V19.0531H88.2351V17.855C88.2351 16.5998 88.5703 15.6441 89.2407 14.988C89.911 14.3176 90.9309 13.9824 92.3002 13.9824H93.8621V16.1434H92.5142C91.8438 16.1434 91.3945 16.3003 91.1662 16.6141C90.938 16.9279 90.8239 17.3558 90.8239 17.8978V19.0531H93.4342V21.2354Z" fill="white"/>
<defs>
<linearGradient id="paint0_linear_1_3180" x1="43.6042" y1="23" x2="-8.14583" y2="23" gradientUnits="userSpaceOnUse">
<stop stop-color="#926CA2"/>
<stop offset="1" stop-color="#926CA2"/>
</linearGradient>
</defs>
</svg>
