<svg width="150" height="160" viewBox="0 0 150 160" fill="none" xmlns="http://www.w3.org/2000/svg">
<path d="M0.5 60.0088C0.5 45.8525 0.501062 35.2856 1.59389 27.1573C2.68479 19.0433 4.85534 13.4342 9.14035 9.14914C13.4254 4.86413 19.0345 2.69358 27.1485 1.60268C35.2768 0.509851 45.8437 0.508789 60 0.508789H110C119.442 0.508789 126.474 0.509851 131.879 1.23656C137.27 1.96134 140.968 3.39966 143.789 6.22021C146.609 9.04075 148.047 12.7391 148.772 18.13C149.499 23.5352 149.5 30.5666 149.5 40.0088V110.009C149.5 119.451 149.499 126.482 148.772 131.888C148.047 137.278 146.609 140.977 143.789 143.797C140.968 146.618 137.27 148.056 131.879 148.781C126.474 149.508 119.442 149.509 110 149.509H40C30.5578 149.509 23.5264 149.508 18.1212 148.781C12.7304 148.056 9.03197 146.618 6.21142 143.797C3.39087 140.977 1.95255 137.278 1.22777 131.888C0.501062 126.482 0.5 119.451 0.5 110.009V60.0088Z" fill="#34E1FA" stroke="#F5F5F5"/>
<g clip-path="url(#clip0_1_4070)" filter="url(#filter0_d_1_4070)">
<path d="M100.342 86.5009C100.342 86.5009 105.058 86.2963 108.471 90.2689C106.932 87.0329 104 82.6279 98.4994 78.8238C98.4994 78.8238 104.317 78.5817 107.707 84.0938C107.69 83.9987 107.673 83.9033 107.655 83.8082C106.205 75.9035 100.575 69.374 92.9643 66.7921C92.9555 66.7909 92.9498 66.788 92.9413 66.7849C92.9413 66.7849 98.3899 64.9715 103.138 69.215C103.138 69.2138 103.135 69.2123 103.135 69.2109C101.431 65.44 98.5771 62.3468 94.9621 60.3373C93.4085 59.4739 91.6469 58.6739 89.6606 58.0023C89.6606 58.0023 93.0855 56.8722 96.8651 58.5067C96.8651 58.5039 96.8622 58.4996 96.8591 58.4967C94.2561 55.0343 90.5746 52.5866 86.3828 51.5172C82.4709 50.5197 78.0168 50.0356 73.6608 50.9666C73.6608 50.9666 76.7944 45.5065 82.7189 45.5455C76.5179 42.0054 68.2758 40.0004 62.6051 44.287C54.161 38.4988 45.5989 35.2022 35.5293 35.0088C41.86 38.3732 61.3683 44.9794 85.498 75.6398C77.3568 67.3156 67.5782 58.664 57.2921 51.8708C56.4242 54.3758 56.015 57.299 56.3521 60.5551C57.6292 57.9404 59.5781 56.6145 59.5781 56.6145C59.5665 56.6491 59.5551 56.6835 59.5435 56.7181C57.4909 62.847 58.4681 69.5858 62.1697 74.8847C62.2332 74.9738 62.2966 75.0648 62.3602 75.1554C63.4556 71.4353 66.2202 69.5382 66.2202 69.5382C65.7561 70.9117 65.4043 72.2338 65.1506 73.4993C64.5857 76.2928 65.4246 79.1858 67.3991 81.2398C67.454 81.2973 67.5146 81.3464 67.5691 81.4038C67.9411 75.5892 72.1672 70.256 72.1672 70.256C71.4667 74.8716 71.5648 78.9001 72.0031 82.2212C72.3142 84.5923 73.6087 86.7273 75.5693 88.0979C75.5863 88.1095 75.6039 88.1224 75.6212 88.1339C75.7594 83.9653 78.3023 81.3377 78.3023 81.3377C78.1839 82.2877 78.1118 83.2058 78.0803 84.0922C77.9474 87.5703 79.6946 90.8553 82.6525 92.6903C83.0014 88.8792 85.2845 86.4993 85.2845 86.4993C84.757 90.7979 86.6192 95.0414 90.1364 97.5666C92.8115 99.4866 95.288 101.576 97.4211 104.062C96.9974 97.3446 94.4 93.3389 94.4 93.3389C99.9291 99.1536 100.627 103.931 99.886 107.327C101.61 110.035 102.962 113.195 103.812 117.009C105.779 113.827 107.237 109.542 108.039 104.6C109.178 97.5942 106.179 90.5384 100.342 86.5009Z" fill="white"/>
</g>
<defs>
<filter id="filter0_d_1_4070" x="7" y="29.0088" width="130" height="130" filterUnits="userSpaceOnUse" color-interpolation-filters="sRGB">
<feFlood flood-opacity="0" result="BackgroundImageFix"/>
<feColorMatrix in="SourceAlpha" type="matrix" values="0 0 0 0 0 0 0 0 0 0 0 0 0 0 0 0 0 0 127 0" result="hardAlpha"/>
<feOffset dy="18"/>
<feGaussianBlur stdDeviation="12"/>
<feComposite in2="hardAlpha" operator="out"/>
<feColorMatrix type="matrix" values="0 0 0 0 0 0 0 0 0 0 0 0 0 0 0 0 0 0 0.1 0"/>
<feBlend mode="normal" in2="BackgroundImageFix" result="effect1_dropShadow_1_4070"/>
<feBlend mode="normal" in="SourceGraphic" in2="effect1_dropShadow_1_4070" result="shape"/>
</filter>
<clipPath id="clip0_1_4070">
<rect width="82" height="82" fill="white" transform="translate(31 35.0088)"/>
</clipPath>
</defs>
</svg>
