<svg width="150" height="157" viewBox="0 0 150 157" fill="none" xmlns="http://www.w3.org/2000/svg">
<path d="M0.5 70.0088C0.5 53.4955 0.501062 41.1608 1.77695 31.6709C3.0509 22.1954 5.58757 15.6309 10.6048 10.6136C15.6221 5.59636 22.1866 3.05969 31.6621 1.78574C41.152 0.509851 53.4867 0.508789 70 0.508789H110C119.442 0.508789 126.474 0.509851 131.879 1.23656C137.27 1.96134 140.968 3.39966 143.789 6.22021C146.609 9.04075 148.047 12.7391 148.772 18.13C149.499 23.5352 149.5 30.5666 149.5 40.0088V110.009C149.5 119.451 149.499 126.482 148.772 131.888C148.047 137.278 146.609 140.977 143.789 143.797C140.968 146.618 137.27 148.056 131.879 148.781C126.474 149.508 119.442 149.509 110 149.509H40C30.5578 149.509 23.5264 149.508 18.1212 148.781C12.7304 148.056 9.03197 146.618 6.21142 143.797C3.39087 140.977 1.95255 137.278 1.22777 131.888C0.501062 126.482 0.5 119.451 0.5 110.009V70.0088Z" fill="#FF7351" stroke="#F5F5F5"/>
<g filter="url(#filter0_d_1_4041)">
<path d="M66.9189 55.3763C66.9189 57.9798 65.8847 60.4766 64.0438 62.3175C62.2029 64.1584 59.7061 65.1926 57.1026 65.1926C54.4992 65.1926 52.0024 64.1584 50.1615 62.3175C48.3206 60.4766 47.2864 57.9798 47.2864 55.3763C47.2864 49.955 57.1026 35.7439 57.1026 35.7439C57.1026 35.7439 66.9189 49.955 66.9189 55.3763ZM116 104.457H37.4702V114.274H116V104.457ZM111.092 35.7439H86.5513V45.5601H99.2434L57.1026 87.6997L40.9404 71.5386L34 78.479L53.6325 98.1114C54.0881 98.5673 54.6291 98.9289 55.2245 99.1757C55.8199 99.4224 56.4581 99.5494 57.1026 99.5494C57.7472 99.5494 58.3854 99.4224 58.9808 99.1757C59.5762 98.9289 60.1172 98.5673 60.5728 98.1114L106.184 52.5005V65.1926H116V40.652C116 40.0075 115.873 39.3692 115.626 38.7737C115.38 38.1783 115.018 37.6372 114.562 37.1814C114.107 36.7257 113.566 36.3641 112.97 36.1175C112.375 35.8708 111.736 35.7439 111.092 35.7439V35.7439Z" fill="white"/>
</g>
<defs>
<filter id="filter0_d_1_4041" x="10" y="28.0088" width="130" height="130" filterUnits="userSpaceOnUse" color-interpolation-filters="sRGB">
<feFlood flood-opacity="0" result="BackgroundImageFix"/>
<feColorMatrix in="SourceAlpha" type="matrix" values="0 0 0 0 0 0 0 0 0 0 0 0 0 0 0 0 0 0 127 0" result="hardAlpha"/>
<feOffset dy="18"/>
<feGaussianBlur stdDeviation="12"/>
<feComposite in2="hardAlpha" operator="out"/>
<feColorMatrix type="matrix" values="0 0 0 0 0 0 0 0 0 0 0 0 0 0 0 0 0 0 0.1 0"/>
<feBlend mode="normal" in2="BackgroundImageFix" result="effect1_dropShadow_1_4041"/>
<feBlend mode="normal" in="SourceGraphic" in2="effect1_dropShadow_1_4041" result="shape"/>
</filter>
</defs>
</svg>
