<svg width="156" height="159" viewBox="0 0 156 159" fill="none" xmlns="http://www.w3.org/2000/svg">
<path d="M152.5 80.0088C152.5 96.5221 152.499 108.857 151.223 118.347C149.949 127.822 147.412 134.387 142.395 139.404C137.378 144.421 130.813 146.958 121.338 148.232C111.848 149.508 99.5133 149.509 83 149.509L43 149.509C33.5578 149.509 26.5264 149.508 21.1212 148.781C15.7303 148.056 12.032 146.618 9.21141 143.797C6.39087 140.977 4.95256 137.278 4.22777 131.888C3.50107 126.482 3.5 119.451 3.5 110.009L3.50001 40.0088C3.50001 30.5666 3.50108 23.5352 4.22778 18.13C4.95257 12.7391 6.39088 9.04076 9.21142 6.2202C12.032 3.39966 15.7304 1.96135 21.1212 1.23656C26.5264 0.509861 33.5578 0.508794 43 0.508795L113 0.508801C122.442 0.508802 129.474 0.50987 134.879 1.23657C140.27 1.96136 143.968 3.39967 146.789 6.22021C149.609 9.04077 151.047 12.7392 151.772 18.13C152.499 23.5352 152.5 30.5666 152.5 40.0088L152.5 80.0088Z" fill="#34AAFF" stroke="#F5F5F5"/>
<g clip-path="url(#clip0_1_4062)" filter="url(#filter0_d_1_4062)">
<path d="M24 70.6285C24.2368 70.6242 24.4747 70.6165 24.7116 70.6154C37.5944 70.6143 50.4761 70.6143 63.359 70.6143C63.5903 70.6143 63.8216 70.6143 64.0793 70.6143C62.8491 59.3595 58.3878 49.6888 50.4389 41.6448C53.0582 39.0772 55.6095 36.5764 58.162 34.0744C79.5464 54.4574 82.0582 92.2356 58.1982 115.965C55.6753 113.423 53.1514 110.879 50.5715 108.279C55.3563 103.217 59.2682 97.4255 61.5981 90.6537C62.8469 87.0228 63.6331 83.2902 64.1254 79.3935C63.8666 79.3935 63.6407 79.3935 63.4149 79.3935C50.5145 79.3935 37.613 79.3935 24.7127 79.3924C24.4758 79.3924 24.2379 79.3847 24.0011 79.3803C24 76.4627 24 73.5462 24 70.6285Z" fill="white"/>
<path d="M131.448 79.3803C131.211 79.3847 130.974 79.3924 130.737 79.3935C119.208 79.3946 107.68 79.3946 96.1515 79.3946C95.9169 79.3946 95.6822 79.3946 95.3763 79.3946C95.3763 91.6143 95.3763 103.797 95.3763 116.01C91.5674 116.01 87.8298 116.01 84.0537 116.01C84.0537 88.6857 84.0537 61.368 84.0537 34.0099C87.8089 34.0099 91.5575 34.0099 95.3555 34.0099C95.3555 46.2023 95.3555 58.3727 95.3555 70.6165C95.6362 70.6165 95.8664 70.6165 96.0978 70.6165C107.644 70.6165 119.19 70.6165 130.738 70.6176C130.975 70.6176 131.213 70.6263 131.449 70.6307C131.448 73.5462 131.448 76.4627 131.448 79.3803Z" fill="white"/>
</g>
<defs>
<filter id="filter0_d_1_4062" x="0" y="28.0088" width="155.448" height="130" filterUnits="userSpaceOnUse" color-interpolation-filters="sRGB">
<feFlood flood-opacity="0" result="BackgroundImageFix"/>
<feColorMatrix in="SourceAlpha" type="matrix" values="0 0 0 0 0 0 0 0 0 0 0 0 0 0 0 0 0 0 127 0" result="hardAlpha"/>
<feOffset dy="18"/>
<feGaussianBlur stdDeviation="12"/>
<feComposite in2="hardAlpha" operator="out"/>
<feColorMatrix type="matrix" values="0 0 0 0 0 0 0 0 0 0 0 0 0 0 0 0 0 0 0.1 0"/>
<feBlend mode="normal" in2="BackgroundImageFix" result="effect1_dropShadow_1_4062"/>
<feBlend mode="normal" in="SourceGraphic" in2="effect1_dropShadow_1_4062" result="shape"/>
</filter>
<clipPath id="clip0_1_4062">
<rect width="107.448" height="82" fill="white" transform="translate(24 34.0088)"/>
</clipPath>
</defs>
</svg>
