<svg width="150" height="158" viewBox="0 0 150 158" fill="none" xmlns="http://www.w3.org/2000/svg">
<path d="M149.5 70.0088C149.5 53.4955 149.499 41.1608 148.223 31.6709C146.949 22.1954 144.412 15.6309 139.395 10.6136C134.378 5.59636 127.813 3.05969 118.338 1.78574C108.848 0.509851 96.5133 0.508789 80 0.508789H40C30.5578 0.508789 23.5264 0.509851 18.1212 1.23656C12.7303 1.96134 9.03197 3.39966 6.21141 6.22021C3.39087 9.04075 1.95256 12.7391 1.22777 18.13C0.501068 23.5352 0.5 30.5666 0.5 40.0088V110.009C0.5 119.451 0.501068 126.482 1.22777 131.888C1.95256 137.278 3.39087 140.977 6.21141 143.797C9.03197 146.618 12.7303 148.056 18.1212 148.781C23.5264 149.508 30.5578 149.509 40 149.509H110C119.442 149.509 126.474 149.508 131.879 148.781C137.27 148.056 140.968 146.618 143.789 143.797C146.609 140.977 148.047 137.278 148.772 131.888C149.499 126.482 149.5 119.451 149.5 110.009V70.0088Z" fill="#FFCD32" stroke="#F5F5F5"/>
<g clip-path="url(#clip0_1_4050)" filter="url(#filter0_d_1_4050)">
<path d="M97.5196 85.4777C85.9094 99.5393 64.0862 99.5348 52.4804 85.4777H34V102.169C36.6325 102.257 39.1002 102.738 41.4745 103.471C45.7457 104.996 53.0362 104.987 57.2739 103.471C59.5417 102.813 61.8848 102.134 66.5101 102.134C75.2564 102.088 75.3027 104.57 83.6468 104.618C87.5899 104.618 89.5118 104.061 91.5473 103.471C96.4923 101.706 105.052 101.698 110.021 103.471C111.981 104.062 113.811 104.463 116 104.567V85.4776H97.5196V85.4777Z" fill="white"/>
<path d="M111.195 108.755C110.286 108.55 109.48 108.316 108.684 108.085C104.402 106.559 97.1288 106.571 92.8847 108.086C90.6168 108.742 88.2721 109.423 83.6468 109.423C74.8996 109.467 74.8541 106.987 66.5101 106.939C62.5671 106.939 60.6468 107.496 58.6112 108.085C53.6541 109.853 45.1086 109.857 40.1372 108.085C38.1255 107.475 36.2456 107.075 34 106.98V115.907H116V109.379C114.305 109.302 112.693 109.099 111.195 108.755Z" fill="white"/>
<path d="M39.0073 42.3118C39.0072 42.3116 49.3204 52.6249 49.3206 52.625C50.1118 51.1884 51.0214 49.8239 52.0368 48.5475L42.4042 38.9149H50.6966V34.1102H34.2026V50.6042H39.0073V42.3118Z" fill="white"/>
<path d="M97.9634 48.5473C98.9788 49.8237 99.8885 51.1883 100.68 52.6249C100.68 52.6249 110.993 42.3118 110.993 42.3116V50.604H115.798V34.1102H99.3036V38.9149H107.596C107.596 38.9145 97.9635 48.5473 97.9634 48.5473Z" fill="white"/>
<path d="M59.2261 85.4777C65.2869 90.6966 74.1301 92.5736 81.8049 90.2824C98.1441 85.6017 104.954 65.6269 94.5404 51.9682C85.0234 39.0693 64.9767 39.0661 55.4592 51.9686C47.5448 62.1105 49.4162 77.4799 59.2261 85.4777ZM82.1973 60.0129L84.7246 67.3272L87.1542 60.0129H92.2167L86.8082 76.296H82.7402L77.114 60.0129H82.1973ZM57.7831 60.0129H62.5878V69.7104C62.5878 70.2165 62.6711 70.6873 63.6897 71.3375C64.3956 71.8121 65.4959 71.8074 66.2409 71.4272C67.575 70.7546 67.575 70.0691 67.575 69.7007V60.0129H72.3797V69.7007C72.5264 73.4165 68.7951 76.587 64.9901 76.5074C61.2679 76.5774 57.6337 73.3501 57.7833 69.7104C57.7831 69.7104 57.7831 60.0129 57.7831 60.0129Z" fill="white"/>
</g>
<defs>
<filter id="filter0_d_1_4050" x="10" y="28.0088" width="130" height="130" filterUnits="userSpaceOnUse" color-interpolation-filters="sRGB">
<feFlood flood-opacity="0" result="BackgroundImageFix"/>
<feColorMatrix in="SourceAlpha" type="matrix" values="0 0 0 0 0 0 0 0 0 0 0 0 0 0 0 0 0 0 127 0" result="hardAlpha"/>
<feOffset dy="18"/>
<feGaussianBlur stdDeviation="12"/>
<feComposite in2="hardAlpha" operator="out"/>
<feColorMatrix type="matrix" values="0 0 0 0 0 0 0 0 0 0 0 0 0 0 0 0 0 0 0.1 0"/>
<feBlend mode="normal" in2="BackgroundImageFix" result="effect1_dropShadow_1_4050"/>
<feBlend mode="normal" in="SourceGraphic" in2="effect1_dropShadow_1_4050" result="shape"/>
</filter>
<clipPath id="clip0_1_4050">
<rect width="82" height="82" fill="white" transform="translate(34 34.0088)"/>
</clipPath>
</defs>
</svg>
