<svg width="46" height="158" viewBox="0 0 46 158" fill="none" xmlns="http://www.w3.org/2000/svg">
<path d="M0.782992 62.9413C0.782992 61.0664 0.784236 59.7192 0.922099 58.6938C1.0577 57.6852 1.31572 57.0762 1.76607 56.6258C2.21642 56.1755 2.82546 55.9174 3.83402 55.7818C4.85943 55.644 6.2067 55.6427 8.08161 55.6427H22.321C25.9441 55.6427 28.6325 55.643 30.7731 55.7868C32.9087 55.9302 34.4569 56.2145 35.8039 56.7627C39.5941 58.3052 42.6013 61.3123 44.1438 65.1026C44.6919 66.4495 44.9762 67.9978 45.1196 70.1333C45.2634 72.274 45.2637 74.9624 45.2637 78.5854V79.2878C45.2637 85.9109 45.2547 89.0661 44.3353 91.5729C42.799 95.7621 39.4977 99.0634 35.3085 100.6C32.8017 101.519 29.6465 101.528 23.0234 101.528C16.4002 101.528 13.245 101.519 10.7382 100.6C6.54903 99.0634 3.24772 95.7621 1.71138 91.5729C0.79202 89.0661 0.782992 85.9109 0.782992 79.2878V62.9413Z" stroke="#5ED2F7" stroke-width="1.17145"/>
<path d="M26.6492 78.4638C26.2514 78.4638 25.9289 78.1413 25.9289 77.7436V74.8281C25.9289 74.3809 26.2928 74.0169 26.74 74.0169H29.2382V71.9667H26.74C25.1623 71.9667 23.8786 73.2503 23.8786 74.8281V77.7435C23.8786 78.1413 23.5561 78.4638 23.1583 78.4638H20.5693V80.5141H23.1584C23.5561 80.5141 23.8786 80.8366 23.8786 81.2343V90.6883H25.929V81.2343C25.929 80.8366 26.2515 80.5141 26.6492 80.5141H29.2383V78.4638H26.6492V78.4638Z" fill="#5ED2F7"/>
<path d="M32.1527 66.2944H13.7009C12.0627 66.2944 10.73 67.6272 10.73 69.2654V87.7172C10.73 89.3554 12.0627 90.6882 13.7009 90.6882H22.4381V81.9546H19.8491C19.4513 81.9546 19.1288 81.632 19.1288 81.2343V77.7435C19.1288 77.3457 19.4513 77.0232 19.8491 77.0232H22.4381V74.8281C22.4381 72.456 24.368 70.5261 26.7401 70.5261H29.9585C30.3563 70.5261 30.6788 70.8486 30.6788 71.2464V74.7371C30.6788 75.1349 30.3563 75.4574 29.9585 75.4574H27.3695V77.0232H29.9585C30.3563 77.0232 30.6788 77.3457 30.6788 77.7435V81.2343C30.6788 81.632 30.3563 81.9546 29.9585 81.9546H27.3695V90.6882H32.1527C33.7909 90.6882 35.1236 89.3554 35.1236 87.7172V69.2654C35.1237 67.6272 33.7909 66.2944 32.1527 66.2944Z" fill="#5ED2F7"/>
<path d="M0.782992 117.998C0.782992 116.123 0.784236 114.776 0.922099 113.751C1.0577 112.742 1.31572 112.133 1.76607 111.683C2.21642 111.232 2.82546 110.974 3.83402 110.839C4.85943 110.701 6.2067 110.7 8.08161 110.7H22.321C25.9441 110.7 28.6325 110.7 30.7731 110.844C32.9087 110.987 34.4569 111.272 35.8039 111.82C39.5941 113.362 42.6013 116.369 44.1438 120.16C44.6919 121.507 44.9762 123.055 45.1196 125.19C45.2634 127.331 45.2637 130.019 45.2637 133.642V134.345C45.2637 140.968 45.2547 144.123 44.3353 146.63C42.799 150.819 39.4977 154.12 35.3085 155.657C32.8017 156.576 29.6465 156.585 23.0234 156.585C16.4002 156.585 13.245 156.576 10.7382 155.657C6.54903 154.12 3.24772 150.819 1.71138 146.63C0.79202 144.123 0.782992 140.968 0.782992 134.345V117.998Z" stroke="#5ED2F7" stroke-width="1.17145"/>
<path d="M30.1647 126.602C29.8356 126.602 29.5679 126.87 29.5679 127.199C29.5679 127.528 29.8356 127.796 30.1647 127.796C30.4937 127.796 30.7614 127.528 30.7614 127.199C30.7614 126.87 30.4937 126.602 30.1647 126.602Z" fill="#5ED2F7"/>
<path d="M23.0207 129.054C20.1034 129.054 17.73 131.427 17.73 134.345C17.73 137.262 20.1034 139.635 23.0207 139.635C25.938 139.635 28.3114 137.262 28.3114 134.345C28.3114 131.427 25.938 129.054 23.0207 129.054Z" fill="#5ED2F7"/>
<path d="M28.5722 122.054H17.4678C13.752 122.054 10.729 125.077 10.729 128.793V139.897C10.729 143.613 13.752 146.636 17.4678 146.636H28.5722C32.288 146.636 35.3109 143.613 35.3109 139.897V128.793C35.3109 125.077 32.288 122.054 28.5722 122.054ZM23.02 141.087C19.3022 141.087 16.2777 138.062 16.2777 134.345C16.2777 130.627 19.3022 127.602 23.02 127.602C26.7377 127.602 29.7623 130.627 29.7623 134.345C29.7623 138.062 26.7377 141.087 23.02 141.087ZM30.1656 129.248C29.0361 129.248 28.1171 128.329 28.1171 127.199C28.1171 126.07 29.0361 125.151 30.1656 125.151C31.2951 125.151 32.2141 126.07 32.2141 127.199C32.2141 128.329 31.2951 129.248 30.1656 129.248Z" fill="#5ED2F7"/>
<path d="M0.782992 7.88434C0.782992 6.00943 0.784236 4.66216 0.922099 3.63676C1.0577 2.6282 1.31572 2.01916 1.76607 1.56881C2.21642 1.11846 2.82546 0.86043 3.83402 0.724833C4.85943 0.586971 6.2067 0.585727 8.08161 0.585727H22.321C25.9441 0.585727 28.6325 0.586034 30.7731 0.729804C32.9087 0.873228 34.4569 1.15753 35.8039 1.70567C39.5941 3.24816 42.6013 6.25532 44.1438 10.0456C44.6919 11.3925 44.9762 12.9408 45.1196 15.0763C45.2634 17.217 45.2637 19.9054 45.2637 23.5284V24.2308C45.2637 30.8539 45.2547 34.0091 44.3353 36.5159C42.799 40.7051 39.4977 44.0064 35.3085 45.5427C32.8017 46.4621 29.6465 46.4711 23.0234 46.4711C16.4002 46.4711 13.245 46.4621 10.7382 45.5427C6.54903 44.0064 3.24772 40.7051 1.71138 36.5159C0.79202 34.0091 0.782992 30.8539 0.782992 24.2308V7.88434Z" stroke="#5ED2F7" stroke-width="1.17145"/>
<path d="M36.2818 16.9013C36.1269 16.6494 35.8434 16.5066 35.5484 16.5322L34.242 16.646L35.4907 14.1288C35.6394 13.829 35.5807 13.4678 35.3447 13.2305C35.1086 12.9932 34.7477 12.9327 34.4472 13.0799L31.1423 14.6984C29.1005 13.6205 26.5496 13.9405 24.7942 15.5395C23.3292 16.874 22.5592 18.9262 22.7028 20.9728C18.8738 20.589 15.6327 18.3974 13.7162 14.8561C13.5891 14.6212 13.3507 14.4676 13.0842 14.4487C12.8173 14.4301 12.5601 14.5484 12.4012 14.7632C11.2125 16.369 11.1291 18.5707 12.0609 20.3821C11.8041 20.3172 11.5307 20.2294 11.2276 20.1281C10.9679 20.0413 10.6816 20.0969 10.4732 20.2745C10.2648 20.4522 10.1646 20.726 10.2092 20.9962C10.5779 23.2317 11.8815 24.9498 13.9408 25.9668C13.6726 26.0601 13.399 26.136 13.1208 26.1939C12.8444 26.2516 12.6206 26.4538 12.5354 26.723C12.4502 26.9921 12.5168 27.2864 12.7097 27.4925C14.1927 29.0777 16.3348 29.8578 17.8564 30.2321C16.1264 31.5869 14.2588 31.8136 11.5451 31.7205C11.231 31.7109 10.9415 31.8879 10.8095 32.1727C10.6775 32.4575 10.7287 32.7936 10.9397 33.0262C12.0709 34.2732 16.1924 35.6792 20.5251 35.7846C20.6964 35.7888 20.8712 35.791 21.0497 35.791C24.0918 35.791 28.1122 35.1389 30.998 32.253C33.1823 30.0688 34.5485 27.5543 35.0586 24.7796C35.4707 22.5385 35.2103 20.7439 35.0852 19.8814C35.0759 19.818 35.0661 19.7507 35.0581 19.6918L36.2801 17.7223C36.436 17.4711 36.4366 17.1533 36.2818 16.9013Z" fill="#5ED2F7"/>
</svg>
