<svg width="106" height="18" viewBox="0 0 106 18" fill="none" xmlns="http://www.w3.org/2000/svg">
<path d="M18.4947 6.71627C18.4357 6.53194 18.3234 6.3692 18.172 6.24859C18.0206 6.12798 17.8369 6.05489 17.644 6.03854L12.2942 5.55264L10.1777 0.599121C10.102 0.421394 9.97573 0.269842 9.81458 0.163318C9.65344 0.0567945 9.46453 0 9.27135 0C9.07818 0 8.88927 0.0567945 8.72812 0.163318C8.56698 0.269842 8.44071 0.421394 8.36502 0.599121L6.24918 5.55264L0.896588 6.03854C0.704401 6.05613 0.521595 6.1297 0.370806 6.25015C0.220018 6.3706 0.10787 6.53263 0.0482518 6.71618C-0.0113667 6.89973 -0.0158376 7.09674 0.0353927 7.2828C0.086623 7.46887 0.191304 7.63582 0.336473 7.76299L4.3819 11.3106L3.19166 16.5652C3.14843 16.7531 3.16139 16.9496 3.22892 17.1302C3.29645 17.3108 3.41558 17.4676 3.57149 17.5811C3.7274 17.6945 3.91322 17.7597 4.10586 17.7684C4.29849 17.7771 4.48943 17.729 4.65496 17.6301L9.2717 14.8708L13.8863 17.6301C14.052 17.7294 14.2432 17.7779 14.4362 17.7694C14.6292 17.7609 14.8154 17.6959 14.9717 17.5824C15.128 17.4689 15.2475 17.312 15.3153 17.1311C15.3831 16.9503 15.3963 16.7535 15.3531 16.5652L14.1629 11.3106L18.2041 7.76369C18.3502 7.63642 18.4555 7.46893 18.5069 7.28215C18.5584 7.09537 18.5536 6.89757 18.4933 6.71347L18.4947 6.71627Z" fill="#FFCC00"/>
<path d="M40.3599 6.71627C40.3009 6.53194 40.1886 6.3692 40.0372 6.24859C39.8858 6.12798 39.7021 6.05489 39.5093 6.03854L34.1595 5.55264L32.0429 0.599121C31.9672 0.421394 31.841 0.269842 31.6798 0.163318C31.5187 0.0567945 31.3298 0 31.1366 0C30.9434 0 30.7545 0.0567945 30.5934 0.163318C30.4322 0.269842 30.3059 0.421394 30.2303 0.599121L28.1144 5.55264L22.7618 6.03854C22.5696 6.05613 22.3868 6.1297 22.236 6.25015C22.0853 6.3706 21.9731 6.53263 21.9135 6.71618C21.8539 6.89973 21.8494 7.09674 21.9006 7.2828C21.9519 7.46887 22.0565 7.63582 22.2017 7.76299L26.2471 11.3106L25.0569 16.5652C25.0137 16.7531 25.0266 16.9496 25.0942 17.1302C25.1617 17.3108 25.2808 17.4676 25.4367 17.5811C25.5926 17.6945 25.7785 17.7597 25.9711 17.7684C26.1637 17.7771 26.3547 17.729 26.5202 17.6301L31.1369 14.8708L35.7516 17.6301C35.9172 17.7294 36.1085 17.7779 36.3014 17.7694C36.4944 17.7609 36.6806 17.6959 36.8369 17.5824C36.9932 17.4689 37.1127 17.312 37.1806 17.1311C37.2484 16.9503 37.2615 16.7535 37.2184 16.5652L36.0281 11.3106L40.0694 7.76369C40.2154 7.63642 40.3207 7.46893 40.3722 7.28215C40.4236 7.09537 40.4189 6.89757 40.3585 6.71347L40.3599 6.71627Z" fill="#FFCC00"/>
<path d="M62.2232 6.71627C62.1642 6.53194 62.0519 6.3692 61.9005 6.24859C61.7491 6.12798 61.5654 6.05489 61.3725 6.03854L56.0227 5.55264L53.9062 0.599121C53.8305 0.421394 53.7042 0.269842 53.5431 0.163318C53.382 0.0567945 53.193 0 52.9999 0C52.8067 0 52.6178 0.0567945 52.4566 0.163318C52.2955 0.269842 52.1692 0.421394 52.0935 0.599121L49.9777 5.55264L44.6251 6.03854C44.4329 6.05613 44.2501 6.1297 44.0993 6.25015C43.9485 6.3706 43.8364 6.53263 43.7768 6.71618C43.7171 6.89973 43.7127 7.09674 43.7639 7.2828C43.8151 7.46887 43.9198 7.63582 44.065 7.76299L48.1104 11.3106L46.9202 16.5652C46.8769 16.7531 46.8899 16.9496 46.9574 17.1302C47.025 17.3108 47.1441 17.4676 47.3 17.5811C47.4559 17.6945 47.6417 17.7597 47.8344 17.7684C48.027 17.7771 48.218 17.729 48.3835 17.6301L53.0002 14.8708L57.6149 17.6301C57.7805 17.7294 57.9717 17.7779 58.1647 17.7694C58.3577 17.7609 58.5439 17.6959 58.7002 17.5824C58.8565 17.4689 58.976 17.312 59.0438 17.1311C59.1117 16.9503 59.1248 16.7535 59.0817 16.5652L57.8914 11.3106L61.9326 7.76369C62.0787 7.63642 62.184 7.46893 62.2355 7.28215C62.2869 7.09537 62.2821 6.89757 62.2218 6.71347L62.2232 6.71627Z" fill="#FFCC00"/>
<path d="M84.0884 6.71627C84.0294 6.53194 83.9171 6.3692 83.7657 6.24859C83.6143 6.12798 83.4306 6.05489 83.2378 6.03854L77.888 5.55264L75.7714 0.599121C75.6958 0.421394 75.5695 0.269842 75.4083 0.163318C75.2472 0.0567945 75.0583 0 74.8651 0C74.6719 0 74.483 0.0567945 74.3219 0.163318C74.1607 0.269842 74.0345 0.421394 73.9588 0.599121L71.8429 5.55264L66.4903 6.03854C66.2982 6.05613 66.1153 6.1297 65.9646 6.25015C65.8138 6.3706 65.7016 6.53263 65.642 6.71618C65.5824 6.89973 65.5779 7.09674 65.6291 7.2828C65.6804 7.46887 65.7851 7.63582 65.9302 7.76299L69.9757 11.3106L68.7854 16.5652C68.7422 16.7531 68.7551 16.9496 68.8227 17.1302C68.8902 17.3108 69.0093 17.4676 69.1652 17.5811C69.3212 17.6945 69.507 17.7597 69.6996 17.7684C69.8922 17.7771 70.0832 17.729 70.2487 17.6301L74.8655 14.8708L79.4801 17.6301C79.6458 17.7294 79.837 17.7779 80.0299 17.7694C80.2229 17.7609 80.4091 17.6959 80.5654 17.5824C80.7218 17.4689 80.8412 17.312 80.9091 17.1311C80.9769 16.9503 80.99 16.7535 80.9469 16.5652L79.7567 11.3106L83.7979 7.76369C83.9439 7.63642 84.0493 7.46893 84.1007 7.28215C84.1521 7.09537 84.1474 6.89757 84.087 6.71347L84.0884 6.71627Z" fill="#FFCC00"/>
<path d="M105.952 6.71627C105.893 6.53194 105.78 6.3692 105.629 6.24859C105.478 6.12798 105.294 6.05489 105.101 6.03854L99.7513 5.55264L97.6347 0.599121C97.559 0.421394 97.4328 0.269842 97.2716 0.163318C97.1105 0.0567945 96.9216 0 96.7284 0C96.5352 0 96.3463 0.0567945 96.1852 0.163318C96.024 0.269842 95.8977 0.421394 95.822 0.599121L93.7062 5.55264L88.3536 6.03854C88.1614 6.05613 87.9786 6.1297 87.8278 6.25015C87.677 6.3706 87.5649 6.53263 87.5053 6.71618C87.4457 6.89973 87.4412 7.09674 87.4924 7.2828C87.5437 7.46887 87.6483 7.63582 87.7935 7.76299L91.8389 11.3106L90.6487 16.5652C90.6055 16.7531 90.6184 16.9496 90.686 17.1302C90.7535 17.3108 90.8726 17.4676 91.0285 17.5811C91.1844 17.6945 91.3703 17.7597 91.5629 17.7684C91.7555 17.7771 91.9465 17.729 92.112 17.6301L96.7287 14.8708L101.343 17.6301C101.509 17.7294 101.7 17.7779 101.893 17.7694C102.086 17.7609 102.272 17.6959 102.429 17.5824C102.585 17.4689 102.705 17.312 102.772 17.1311C102.84 16.9503 102.853 16.7535 102.81 16.5652L101.62 11.3106L105.661 7.76369C105.807 7.63642 105.913 7.46893 105.964 7.28215C106.015 7.09537 106.011 6.89757 105.95 6.71347L105.952 6.71627Z" fill="#FFCC00"/>
</svg>
